<svg width="30" height="48" viewBox="0 0 30 48" fill="none" xmlns="http://www.w3.org/2000/svg">
<path d="M26.2 4.3C28.8 6.5 30 9.7 30 13.8C30 17.7 28.7 20.7 26.2 22.9C23.7 25.1 20.4 26.2 16.2 26.3V31.7H6.4V19.7H10.5C13.4 19.7 15.7 19.3 17.3 18.4C18.9 17.6 19.7 16.1 19.7 13.9C19.7 12.5 19.3 11.4 18.5 10.7C17.7 9.9 16.7 9.5 15.4 9.5C13.9 9.5 12.8 9.9 12 10.8C11.2 11.7 10.7 12.8 10.7 14.1H1C0.9 11.7 1.4 9.4 2.6 7.4C3.7 5.4 5.4 3.8 7.7 2.6C10 1.4 12.7 0.9 15.9 0.9C20.2 1 23.6 2.1 26.2 4.3Z" fill="white"/>
<path d="M16.8 42C16.8 44.9 14.5 47.2 11.6 47.2H11.2C8.3 47.2 6 44.9 6 42C6 39.1 8.3 36.8 11.2 36.8H11.6C14.5 36.8 16.8 39.1 16.8 42Z" fill="#E9168C"/>
</svg>
