<svg width="35" height="55" viewBox="0 0 35 55" fill="none" xmlns="http://www.w3.org/2000/svg">
<g clip-path="url(#clip0_210_68)">
<path d="M30.4137 3.92848C33.5516 6.54753 34.9999 10.3571 34.9999 15.238C34.9999 19.8809 33.4309 23.4523 30.4137 26.0713C27.3964 28.6904 23.4137 29.9999 18.3447 30.119V36.5475H6.51712V22.2618H11.4654C14.9654 22.2618 17.7413 21.7856 19.6723 20.7142C21.6033 19.7618 22.5688 17.9761 22.5688 15.3571C22.5688 13.6904 22.0861 12.3809 21.1206 11.5475C20.1551 10.5951 18.9482 10.119 17.3792 10.119C15.5688 10.119 14.2413 10.5951 13.2757 11.6666C12.3102 12.738 11.7068 14.0475 11.7068 15.5951H-0.000119637C-0.120809 12.738 0.482639 9.99991 1.93091 7.61896C3.2585 5.238 5.31022 3.33324 8.08609 1.90467C10.8619 0.476098 14.1206 -0.119141 17.9826 -0.119141C23.1723 -9.29934e-05 27.2757 1.30943 30.4137 3.92848Z" fill="white"/>
<path d="M19.0689 48.8096C19.0689 52.262 16.293 55.0001 12.793 55.0001H12.3103C8.81029 55.0001 6.03442 52.262 6.03442 48.8096C6.03442 45.3572 8.81029 42.6191 12.3103 42.6191H12.793C16.293 42.6191 19.0689 45.3572 19.0689 48.8096Z" fill="#E9168C"/>
</g>
<defs>
<clipPath id="clip0_210_68">
<rect width="35" height="55" fill="white"/>
</clipPath>
</defs>
</svg>
