<svg width="44" height="64" viewBox="0 0 44 64" fill="none" xmlns="http://www.w3.org/2000/svg">
<g clip-path="url(#clip0_210_68)">
<path d="M38.2346 4.57128C42.1794 7.6189 44.0001 12.0518 44.0001 17.7315C44.0001 23.1341 42.0277 27.2899 38.2346 30.3375C34.4415 33.3851 29.4346 34.9089 23.0621 35.0475V42.528H8.19318V25.9046H14.4139C18.8139 25.9046 22.3035 25.3505 24.7311 24.1038C27.1587 22.9955 28.3725 20.9176 28.3725 17.87C28.3725 15.9306 27.7656 14.4068 26.5518 13.4371C25.338 12.3289 23.8208 11.7747 21.8484 11.7747C19.5725 11.7747 17.9035 12.3289 16.6897 13.5756C15.4759 14.8224 14.7173 16.3462 14.7173 18.147H7.97885e-05C-0.151644 14.8224 0.606976 11.6362 2.42767 8.86566C4.09663 6.09509 6.67594 3.87864 10.1656 2.21631C13.6553 0.553969 17.7518 -0.138672 22.607 -0.138672C29.1311 -0.000143729 34.2897 1.52367 38.2346 4.57128Z" fill="white"/>
<path d="M23.9724 56.7967C23.9724 60.814 20.4827 64.0002 16.0827 64.0002H15.4758C11.0758 64.0002 7.58618 60.814 7.58618 56.7967C7.58618 52.7794 11.0758 49.5933 15.4758 49.5933H16.0827C20.4827 49.5933 23.9724 52.7794 23.9724 56.7967Z" fill="#E9168C"/>
</g>
<defs>
<clipPath id="clip0_210_68">
<rect width="44" height="64" fill="white"/>
</clipPath>
</defs>
</svg>
