<svg width="33" height="36" viewBox="0 0 33 36" fill="none" xmlns="http://www.w3.org/2000/svg">
<g filter="url(#filter0_d_1641_3982)">
<path d="M11.206 27.5405C10.6962 27.2258 10.2444 26.837 9.86791 26.389C9.4538 25.9266 9.07011 25.4414 8.71893 24.9362C7.89483 23.8161 7.24855 22.5919 6.79992 21.3011C6.26099 19.8018 6 18.3648 6 16.9592C6 15.3894 6.36603 14.0191 7.08192 12.8676C7.6126 11.9676 8.39283 11.2155 9.3419 10.6891C10.2617 10.1591 11.3185 9.86904 12.401 9.84951C12.78 9.84951 13.188 9.90048 13.6211 9.99794C13.9322 10.0797 14.3111 10.2086 14.7741 10.369C15.3631 10.5797 15.6871 10.7086 15.797 10.7401C16.1421 10.857 16.4321 10.908 16.66 10.908C16.8329 10.908 17.0769 10.857 17.3541 10.7791C17.51 10.7281 17.8041 10.6381 18.2251 10.471C18.642 10.33 18.9701 10.2093 19.231 10.1194C19.631 10.0099 20.018 9.90873 20.3631 9.85775C20.7721 9.79793 21.1872 9.78208 21.6001 9.81053C22.3157 9.85392 23.0205 9.99461 23.692 10.2281C24.7901 10.6381 25.6781 11.2783 26.3391 12.1884C26.0597 12.3482 25.7975 12.5324 25.5561 12.7387C25.0306 13.1709 24.583 13.6783 24.2302 14.2417C23.769 15.0116 23.53 15.879 23.5361 16.7598C23.5531 17.8415 23.852 18.7943 24.4411 19.6182C24.8741 20.2288 25.4369 20.7509 26.095 21.1527C26.432 21.3634 26.722 21.508 27 21.6055C26.8699 21.9803 26.7309 22.3432 26.5669 22.703C26.1949 23.5099 25.744 24.2835 25.22 25.0142C24.7529 25.6431 24.3869 26.1116 24.109 26.4235C23.6759 26.8995 23.2589 27.2631 22.838 27.5165C22.375 27.8013 21.828 27.9535 21.2721 27.9535C20.8956 27.9669 20.5192 27.9247 20.157 27.8283C19.8459 27.7309 19.5381 27.6252 19.2351 27.5045C18.9201 27.3702 18.5953 27.2568 18.2631 27.1649C17.4419 26.9692 16.5809 26.9679 15.7591 27.1611C15.4221 27.2511 15.0981 27.3561 14.7781 27.485C14.3281 27.6604 14.0291 27.7781 13.8562 27.8283C13.5112 27.922 13.1533 27.9805 12.7913 28C12.2313 28 11.7093 27.8516 11.1922 27.551L11.206 27.5405ZM18.5911 9.08786C17.8591 9.42746 17.1601 9.57214 16.4661 9.52491C16.357 8.87646 16.4661 8.21303 16.7561 7.48662C17.0031 6.8712 17.368 6.30231 17.8332 5.8074C18.3245 5.28641 18.9206 4.85938 19.5882 4.55024C20.2992 4.21065 20.9771 4.02699 21.6252 4C21.7092 4.67918 21.6252 5.34712 21.3561 6.06903C21.1071 6.70719 20.7429 7.3014 20.279 7.82621C19.8056 8.34791 19.2246 8.7766 18.5701 9.08712L18.5911 9.08786Z" fill="white"/>
</g>
<defs>
<filter id="filter0_d_1641_3982" x="0" y="0" width="33" height="36" filterUnits="userSpaceOnUse" color-interpolation-filters="sRGB">
<feFlood flood-opacity="0" result="BackgroundImageFix"/>
<feColorMatrix in="SourceAlpha" type="matrix" values="0 0 0 0 0 0 0 0 0 0 0 0 0 0 0 0 0 0 127 0" result="hardAlpha"/>
<feOffset dy="2"/>
<feGaussianBlur stdDeviation="3"/>
<feColorMatrix type="matrix" values="0 0 0 0 0.309804 0 0 0 0 0 0 0 0 0 0.588235 0 0 0 0.25 0"/>
<feBlend mode="normal" in2="BackgroundImageFix" result="effect1_dropShadow_1641_3982"/>
<feBlend mode="normal" in="SourceGraphic" in2="effect1_dropShadow_1641_3982" result="shape"/>
</filter>
</defs>
</svg>
