<svg width="139" height="43" viewBox="0 0 139 43" fill="none" xmlns="http://www.w3.org/2000/svg">
<path d="M136.777 23.251C134.912 23.6045 133.208 23.8777 131.569 24.0705C130.219 24.2312 128.868 24.3598 127.518 24.4241C127.357 23.8777 126.956 23.3956 126.393 23.1707C125.493 22.8011 124.512 22.8814 124.143 22.9296C123.387 23.0261 122.374 23.4599 121.748 24.3759C121.314 25.0186 121.169 25.7739 121.346 26.513C121.41 26.8023 121.522 27.0594 121.683 27.2844C121.346 27.7343 121.024 28.1521 120.687 28.5699C120.204 29.1645 119.545 30 118.886 30.4018C118.742 30.0161 118.597 29.5019 118.533 28.9877C118.324 27.654 118.324 26.738 118.324 25.2115V24.7294C118.324 21.8851 119.69 18.2053 121.731 15.5539C122.374 14.7183 122.23 13.4971 121.378 12.8543C120.526 12.2115 119.32 12.3562 118.677 13.2078C116.765 15.6825 115.35 18.8481 114.771 21.8209C114.257 22.5118 113.743 23.251 113.196 24.0384C111.267 26.8344 109.097 30.0161 106.365 30.6107C106.091 30.6749 105.722 30.7071 105.529 30.5785C104.805 30.0322 104.596 27.5736 104.484 26.2399C104.468 26.0149 104.452 25.806 104.436 25.6132C104.339 24.6169 104.291 23.6688 104.259 22.7529C104.339 22.7047 104.404 22.6565 104.468 22.5922C110.271 17.7072 113.759 12.1633 114.546 6.53914C114.996 3.34138 113.855 1.75054 112.81 0.979224C111.782 0.207906 110.592 -0.0652689 109.37 0.175768C106.863 0.657841 105.159 3.2289 104.693 4.00022C102.828 7.13369 101.944 10.5403 101.43 12.8222C100.707 16.1163 100.369 19.0088 100.401 22.1262C99.9671 22.7207 99.517 23.3635 99.067 24.0384C97.1381 26.8344 94.9681 30.0161 92.2355 30.6107C91.9622 30.6749 91.5925 30.7071 91.3996 30.5785C90.6763 30.0322 90.4673 27.5736 90.3548 26.2399C90.3387 26.0149 90.3227 25.806 90.3066 25.6132C90.2101 24.6169 90.1619 23.6688 90.1298 22.7529C90.2101 22.7047 90.2744 22.6565 90.3387 22.5922C96.1415 17.7072 99.6296 12.1633 100.417 6.53914C100.867 3.34138 99.726 1.75054 98.6812 0.979224C97.6525 0.207906 96.463 -0.0652689 95.2413 0.175768C92.7177 0.657841 91.0138 3.2289 90.5477 4.00022C88.6831 7.13369 87.799 10.5403 87.2847 12.8222C86.4809 16.4216 86.1595 19.5391 86.272 23.01C85.1629 24.6008 83.9895 26.1435 82.7517 27.6057C82.0123 28.4735 81.4176 29.1162 80.8389 29.6626L80.7103 29.7911C80.5496 29.9518 80.2603 30.225 80.0191 30.4178C79.987 30.3375 79.9549 30.2572 79.9227 30.1768C79.6816 29.534 79.5369 28.8109 79.5048 28.0235C79.4726 27.1237 79.6012 26.1756 79.7459 25.1632C79.7941 24.874 79.8263 24.5848 79.8745 24.2955C79.9227 23.9741 79.9549 23.6527 79.9709 23.3314C80.0674 22.9618 80.1477 22.5922 80.2281 22.2387C80.3406 21.6923 80.4532 21.1781 80.6139 20.696C80.9515 19.6515 81.2569 18.6713 81.723 17.8036C82.1249 17.0483 82.6392 16.3734 83.2501 15.7789C84.0216 15.0397 84.0377 13.8184 83.3143 13.0471C82.5749 12.2758 81.3533 12.2597 80.5817 12.9829C79.7298 13.8024 79.0065 14.7344 78.4439 15.7467C78.3957 15.6825 78.3474 15.6343 78.2992 15.5861C77.0133 14.1077 74.9237 13.3364 72.8501 13.5774C71.082 13.7702 69.3781 14.6701 68.0439 16.0842C66.967 17.2251 66.1472 18.6874 65.5846 20.4389C65.2953 21.3388 65.0863 22.3029 64.9416 23.3314C64.6845 23.4921 64.4755 23.701 64.2987 23.9741C63.6396 25.0829 61.4053 27.8789 60.3605 29.052C60.039 29.4055 59.4604 30.0483 58.9138 30.4018C58.7692 30.0322 58.6406 29.5019 58.5602 28.9877C58.3512 27.654 58.3512 26.738 58.3512 25.2115V24.7294C58.3512 21.8851 59.7176 18.2053 61.759 15.5539C62.4019 14.7183 62.2573 13.4971 61.4053 12.8543C60.5534 12.2115 59.3478 12.3562 58.7049 13.2078C56.4867 16.0681 54.9596 19.8444 54.5899 23.2028C54.2524 23.3474 53.963 23.5724 53.738 23.8938C52.7575 25.3561 51.6483 26.8023 50.3946 28.2967C48.1603 30.9321 47.4369 30.7874 46.585 30.2411C46.0546 29.9036 45.2991 29.1966 45.074 27.0112C44.9937 26.2559 44.9937 25.4846 45.074 24.7294C45.1705 24.4562 45.2187 24.167 45.1866 23.8777C45.3312 23.0261 45.5563 22.1905 45.8777 21.4191C45.942 21.2745 46.0063 21.1138 46.0706 20.9692C46.6814 19.6355 47.453 18.6874 48.2567 18.2053C48.6425 17.9803 49.1569 17.8679 49.4783 17.9643C49.623 17.9964 49.6873 18.0607 49.7355 18.1571C50.266 19.073 51.4394 19.3944 52.3717 18.8642C53.2879 18.3339 53.6094 17.1608 53.0789 16.2288C52.5003 15.2165 51.6001 14.5255 50.4589 14.2362C49.1408 13.8827 47.5816 14.1398 46.2957 14.8951C44.7847 15.7789 43.5309 17.2894 42.5665 19.3462C42.47 19.5551 42.3897 19.748 42.2932 19.9569C41.9878 20.696 41.7467 21.4513 41.5699 22.2065C41.4091 22.1905 41.2645 22.1905 41.1198 22.1583C41.1037 21.2745 40.9912 20.4229 40.7822 19.6033C40.3 17.7072 39.3356 16.1324 37.9693 15.0558L37.9532 15.0397C37.9371 15.0236 37.9211 15.0236 37.905 15.0076C37.8728 14.9915 37.8568 14.9754 37.8246 14.9594C37.8246 14.9594 37.8085 14.9594 37.8085 14.9433C36.3297 13.8345 34.4008 13.3524 32.3594 13.5774C29.7554 13.8506 27.4729 15.2165 25.769 17.5304C24.3867 19.4105 23.4544 21.8209 23.165 24.3277C22.8918 26.6255 22.9882 29.8394 24.9493 32.1372C26.3959 33.8406 28.582 34.5637 30.7038 34.5637C31.8611 34.5637 32.9863 34.3548 33.9668 33.9691C37.471 32.6193 39.7214 29.4376 40.6376 25.9828C40.7983 25.9988 40.9591 26.0149 41.1198 26.031C41.1198 26.497 41.152 26.9469 41.2002 27.3968C41.4895 30.2572 42.5986 32.314 44.4954 33.487C45.4598 34.0816 46.4564 34.3869 47.453 34.3869C48.3049 34.3869 49.1408 34.1619 49.9606 33.7281C51.2786 33.0371 52.3395 31.8801 53.304 30.7553C53.7701 30.1929 54.2202 29.6465 54.6542 29.1002C54.6703 29.2448 54.6864 29.3894 54.7185 29.534C55.2007 32.6675 56.5188 34.4512 58.3673 34.4512C58.4477 34.4512 58.512 34.4512 58.5924 34.4351C60.8106 34.2744 62.3698 32.5229 63.2056 31.5909C63.6396 31.1088 64.3147 30.2893 65.022 29.4055C65.1345 29.8876 65.2953 30.3696 65.5203 30.8517C66.3883 32.7639 68.0118 34.0816 69.8603 34.3708C71.6606 34.6601 73.6217 33.937 75.2291 32.3943C75.5827 32.0569 75.9042 31.7194 76.1935 31.3499C76.2096 31.4141 76.2417 31.4463 76.2578 31.4945C76.5632 32.2819 77.3669 34.403 79.6816 34.403C79.6977 34.403 79.6977 34.403 79.7137 34.403C81.3533 34.403 82.5428 33.2781 83.3304 32.5068L83.4429 32.3943C84.118 31.7516 84.7932 31.0285 85.629 30.0483C85.9826 29.6305 86.3363 29.2127 86.6738 28.7788C86.9471 30.6107 87.5258 32.5068 89.0207 33.6156C89.5832 34.0334 90.4673 34.4673 91.705 34.4673C92.0908 34.4673 92.5087 34.4191 92.9749 34.3226C96.3504 33.5995 98.7776 30.8999 100.739 28.2164C100.98 30.225 101.51 32.3943 103.166 33.6156C103.728 34.0334 104.613 34.4673 105.85 34.4673C106.236 34.4673 106.654 34.4191 107.12 34.3226C110.303 33.6317 112.65 31.2052 114.546 28.6663C114.578 28.9395 114.611 29.2127 114.659 29.518C115.141 32.6515 116.459 34.4351 118.308 34.4351C118.388 34.4351 118.452 34.4351 118.533 34.4191C121.024 34.2262 122.599 32.2497 123.644 30.9321C124.255 30.1607 124.866 29.3573 125.509 28.4735C125.541 28.4253 125.573 28.3771 125.621 28.3289C126.168 28.3128 126.698 28.2967 127.229 28.2646C128.804 28.1842 130.395 28.0557 131.971 27.8629C133.707 27.654 135.491 27.3647 137.436 26.9951C138.481 26.8023 139.172 25.7899 138.963 24.7454C138.834 23.7331 137.822 23.0582 136.777 23.251ZM105.191 13.6578C105.915 10.3797 106.783 8.0175 108.004 5.97672C108.631 4.93223 109.547 4.06449 110.142 3.93594C110.174 3.93594 110.206 3.91987 110.238 3.91987C110.303 3.91987 110.399 3.93594 110.528 4.04842C110.737 4.20912 110.898 4.88402 110.753 5.97672C110.11 10.4921 107.393 14.3487 104.564 17.2572C104.709 16.1003 104.918 14.9111 105.191 13.6578ZM91.046 13.6578C91.7693 10.3797 92.6373 8.0175 93.859 5.97672C94.4859 4.93223 95.4021 4.06449 95.9968 3.93594C96.029 3.93594 96.0611 3.91987 96.0933 3.91987C96.1576 3.91987 96.254 3.93594 96.3826 4.04842C96.5916 4.20912 96.7523 4.88402 96.6076 5.97672C95.9647 10.4921 93.2481 14.3487 90.4191 17.2572C90.5638 16.1003 90.7727 14.9111 91.046 13.6578ZM32.6166 30.3536C31.1217 30.9321 28.9517 30.8196 27.923 29.6144C26.7978 28.2967 26.8781 25.9988 27.0228 24.7454C27.4086 21.4513 29.3857 17.7554 32.7934 17.3858C33.4685 17.3054 34.1115 17.3858 34.6741 17.5786C34.5776 19.2498 34.7545 21.9976 36.5869 23.9741C36.7477 24.1348 36.9084 24.2955 37.0691 24.4401C36.5387 26.9951 34.9795 29.4376 32.6166 30.3536ZM76.1453 22.6886C76.1131 22.7689 76.0971 22.8654 76.0649 22.9457C76.0328 23.0261 76.0167 23.1225 75.9846 23.2028C75.213 25.6132 74.2646 28.0557 72.609 29.6305C71.8857 30.3214 71.0819 30.691 70.5033 30.5946C69.9728 30.5143 69.3942 29.984 69.0727 29.293C68.6548 28.3771 68.6065 27.188 68.6065 26.272C68.6065 24.4883 68.8316 22.9618 69.2495 21.612C69.6353 20.4229 70.1657 19.4426 70.8408 18.7356C71.532 17.9964 72.4161 17.5143 73.268 17.4179C73.3645 17.4019 73.477 17.4019 73.5734 17.4019C74.2807 17.4019 74.9719 17.675 75.3737 18.141C75.872 18.7035 76.0488 19.5873 76.0971 20.2461C76.1935 21.0495 76.1935 21.8851 76.1453 22.6886Z" fill="white"/>
<path d="M136.777 23.251C134.912 23.6045 133.208 23.8777 131.569 24.0705C130.219 24.2312 128.868 24.3598 127.518 24.4241C127.357 23.8777 126.956 23.3956 126.393 23.1707C125.493 22.8011 124.512 22.8814 124.143 22.9296C123.387 23.0261 122.374 23.4599 121.748 24.3759C121.314 25.0186 121.169 25.7739 121.346 26.513C121.41 26.8023 121.522 27.0594 121.683 27.2844C121.346 27.7343 121.024 28.1521 120.687 28.5699C120.204 29.1645 119.545 30 118.886 30.4018C118.742 30.0161 118.597 29.5019 118.533 28.9877C118.324 27.654 118.324 26.738 118.324 25.2115V24.7294C118.324 21.8851 119.69 18.2053 121.731 15.5539C122.374 14.7183 122.23 13.4971 121.378 12.8543C120.526 12.2115 119.32 12.3562 118.677 13.2078C116.765 15.6825 115.35 18.8481 114.771 21.8209C114.257 22.5118 113.743 23.251 113.196 24.0384C111.267 26.8344 109.097 30.0161 106.365 30.6107C106.091 30.6749 105.722 30.7071 105.529 30.5785C104.805 30.0322 104.596 27.5736 104.484 26.2399C104.468 26.0149 104.452 25.806 104.436 25.6132C104.339 24.6169 104.291 23.6688 104.259 22.7529C104.339 22.7047 104.404 22.6565 104.468 22.5922C110.271 17.7072 113.759 12.1633 114.546 6.53914C114.996 3.34138 113.855 1.75054 112.81 0.979224C111.782 0.207906 110.592 -0.0652689 109.37 0.175768C106.863 0.657841 105.159 3.2289 104.693 4.00022C102.828 7.13369 101.944 10.5403 101.43 12.8222C100.707 16.1163 100.369 19.0088 100.401 22.1262C99.9671 22.7207 99.517 23.3635 99.067 24.0384C97.1381 26.8344 94.9681 30.0161 92.2355 30.6107C91.9622 30.6749 91.5925 30.7071 91.3996 30.5785C90.6763 30.0322 90.4673 27.5736 90.3548 26.2399C90.3387 26.0149 90.3227 25.806 90.3066 25.6132C90.2101 24.6169 90.1619 23.6688 90.1298 22.7529C90.2101 22.7047 90.2744 22.6565 90.3387 22.5922C96.1415 17.7072 99.6296 12.1633 100.417 6.53914C100.867 3.34138 99.726 1.75054 98.6812 0.979224C97.6525 0.207906 96.463 -0.0652689 95.2413 0.175768C92.7177 0.657841 91.0138 3.2289 90.5477 4.00022C88.6831 7.13369 87.799 10.5403 87.2847 12.8222C86.4809 16.4216 86.1595 19.5391 86.272 23.01C85.1629 24.6008 83.9895 26.1435 82.7517 27.6057C82.0123 28.4735 81.4176 29.1162 80.8389 29.6626L80.7103 29.7911C80.5496 29.9518 80.2603 30.225 80.0191 30.4178C79.987 30.3375 79.9549 30.2572 79.9227 30.1768C79.6816 29.534 79.5369 28.8109 79.5048 28.0235C79.4726 27.1237 79.6012 26.1756 79.7459 25.1632C79.7941 24.874 79.8263 24.5848 79.8745 24.2955C79.9227 23.9741 79.9549 23.6527 79.9709 23.3314C80.0674 22.9618 80.1477 22.5922 80.2281 22.2387C80.3406 21.6923 80.4532 21.1781 80.6139 20.696C80.9515 19.6515 81.2569 18.6713 81.723 17.8036C82.1249 17.0483 82.6392 16.3734 83.2501 15.7789C84.0216 15.0397 84.0377 13.8184 83.3143 13.0471C82.5749 12.2758 81.3533 12.2597 80.5817 12.9829C79.7298 13.8024 79.0065 14.7344 78.4439 15.7467C78.3957 15.6825 78.3474 15.6343 78.2992 15.5861C77.0133 14.1077 74.9237 13.3364 72.8501 13.5774C71.082 13.7702 69.3781 14.6701 68.0439 16.0842C66.967 17.2251 66.1472 18.6874 65.5846 20.4389C65.2953 21.3388 65.0863 22.3029 64.9416 23.3314C64.6845 23.4921 64.4755 23.701 64.2987 23.9741C63.6396 25.0829 61.4053 27.8789 60.3605 29.052C60.039 29.4055 59.4604 30.0483 58.9138 30.4018C58.7692 30.0322 58.6406 29.5019 58.5602 28.9877C58.3512 27.654 58.3512 26.738 58.3512 25.2115V24.7294C58.3512 21.8851 59.7176 18.2053 61.759 15.5539C62.4019 14.7183 62.2573 13.4971 61.4053 12.8543C60.5534 12.2115 59.3478 12.3562 58.7049 13.2078C56.4867 16.0681 54.9596 19.8444 54.5899 23.2028C54.2524 23.3474 53.963 23.5724 53.738 23.8938C52.7575 25.3561 51.6483 26.8023 50.3946 28.2967C48.1603 30.9321 47.4369 30.7874 46.585 30.2411C46.0546 29.9036 45.2991 29.1966 45.074 27.0112C44.9937 26.2559 44.9937 25.4846 45.074 24.7294C45.1705 24.4562 45.2187 24.167 45.1866 23.8777C45.3312 23.0261 45.5563 22.1905 45.8777 21.4191C45.942 21.2745 46.0063 21.1138 46.0706 20.9692C46.6814 19.6355 47.453 18.6874 48.2567 18.2053C48.6425 17.9803 49.1569 17.8679 49.4783 17.9643C49.623 17.9964 49.6873 18.0607 49.7355 18.1571C50.266 19.073 51.4394 19.3944 52.3717 18.8642C53.2879 18.3339 53.6094 17.1608 53.0789 16.2288C52.5003 15.2165 51.6001 14.5255 50.4589 14.2362C49.1408 13.8827 47.5816 14.1398 46.2957 14.8951C44.7847 15.7789 43.5309 17.2894 42.5665 19.3462C42.47 19.5551 42.3897 19.748 42.2932 19.9569C41.9878 20.696 41.7467 21.4513 41.5699 22.2065C41.4091 22.1905 41.2645 22.1905 41.1198 22.1583C41.1037 21.2745 40.9912 20.4229 40.7822 19.6033C40.3 17.7072 39.3356 16.1324 37.9693 15.0558L37.9532 15.0397C37.9371 15.0236 37.9211 15.0236 37.905 15.0076C37.8728 14.9915 37.8568 14.9754 37.8246 14.9594C37.8246 14.9594 37.8085 14.9594 37.8085 14.9433C36.3297 13.8345 34.4008 13.3524 32.3594 13.5774C29.7554 13.8506 27.4729 15.2165 25.769 17.5304C24.3867 19.4105 23.4544 21.8209 23.165 24.3277C22.8918 26.6255 22.9882 29.8394 24.9493 32.1372C26.3959 33.8406 28.582 34.5637 30.7038 34.5637C31.8611 34.5637 32.9863 34.3548 33.9668 33.9691C37.471 32.6193 39.7214 29.4376 40.6376 25.9828C40.7983 25.9988 40.9591 26.0149 41.1198 26.031C41.1198 26.497 41.152 26.9469 41.2002 27.3968C41.4895 30.2572 42.5986 32.314 44.4954 33.487C45.4598 34.0816 46.4564 34.3869 47.453 34.3869C48.3049 34.3869 49.1408 34.1619 49.9606 33.7281C51.2786 33.0371 52.3395 31.8801 53.304 30.7553C53.7701 30.1929 54.2202 29.6465 54.6542 29.1002C54.6703 29.2448 54.6864 29.3894 54.7185 29.534C55.2007 32.6675 56.5188 34.4512 58.3673 34.4512C58.4477 34.4512 58.512 34.4512 58.5924 34.4351C60.8106 34.2744 62.3698 32.5229 63.2056 31.5909C63.6396 31.1088 64.3147 30.2893 65.022 29.4055C65.1345 29.8876 65.2953 30.3696 65.5203 30.8517C66.3883 32.7639 68.0118 34.0816 69.8603 34.3708C71.6606 34.6601 73.6217 33.937 75.2291 32.3943C75.5827 32.0569 75.9042 31.7194 76.1935 31.3499C76.2096 31.4141 76.2417 31.4463 76.2578 31.4945C76.5632 32.2819 77.3669 34.403 79.6816 34.403C79.6977 34.403 79.6977 34.403 79.7137 34.403C81.3533 34.403 82.5428 33.2781 83.3304 32.5068L83.4429 32.3943C84.118 31.7516 84.7932 31.0285 85.629 30.0483C85.9826 29.6305 86.3363 29.2127 86.6738 28.7788C86.9471 30.6107 87.5258 32.5068 89.0207 33.6156C89.5832 34.0334 90.4673 34.4673 91.705 34.4673C92.0908 34.4673 92.5087 34.4191 92.9749 34.3226C96.3504 33.5995 98.7776 30.8999 100.739 28.2164C100.98 30.225 101.51 32.3943 103.166 33.6156C103.728 34.0334 104.613 34.4673 105.85 34.4673C106.236 34.4673 106.654 34.4191 107.12 34.3226C110.303 33.6317 112.65 31.2052 114.546 28.6663C114.578 28.9395 114.611 29.2127 114.659 29.518C115.141 32.6515 116.459 34.4351 118.308 34.4351C118.388 34.4351 118.452 34.4351 118.533 34.4191C121.024 34.2262 122.599 32.2497 123.644 30.9321C124.255 30.1607 124.866 29.3573 125.509 28.4735C125.541 28.4253 125.573 28.3771 125.621 28.3289C126.168 28.3128 126.698 28.2967 127.229 28.2646C128.804 28.1842 130.395 28.0557 131.971 27.8629C133.707 27.654 135.491 27.3647 137.436 26.9951C138.481 26.8023 139.172 25.7899 138.963 24.7454C138.834 23.7331 137.822 23.0582 136.777 23.251ZM105.191 13.6578C105.915 10.3797 106.783 8.0175 108.004 5.97672C108.631 4.93223 109.547 4.06449 110.142 3.93594C110.174 3.93594 110.206 3.91987 110.238 3.91987C110.303 3.91987 110.399 3.93594 110.528 4.04842C110.737 4.20912 110.898 4.88402 110.753 5.97672C110.11 10.4921 107.393 14.3487 104.564 17.2572C104.709 16.1003 104.918 14.9111 105.191 13.6578ZM91.046 13.6578C91.7693 10.3797 92.6373 8.0175 93.859 5.97672C94.4859 4.93223 95.4021 4.06449 95.9968 3.93594C96.029 3.93594 96.0611 3.91987 96.0933 3.91987C96.1576 3.91987 96.254 3.93594 96.3826 4.04842C96.5916 4.20912 96.7523 4.88402 96.6076 5.97672C95.9647 10.4921 93.2481 14.3487 90.4191 17.2572C90.5638 16.1003 90.7727 14.9111 91.046 13.6578ZM32.6166 30.3536C31.1217 30.9321 28.9517 30.8196 27.923 29.6144C26.7978 28.2967 26.8781 25.9988 27.0228 24.7454C27.4086 21.4513 29.3857 17.7554 32.7934 17.3858C33.4685 17.3054 34.1115 17.3858 34.6741 17.5786C34.5776 19.2498 34.7545 21.9976 36.5869 23.9741C36.7477 24.1348 36.9084 24.2955 37.0691 24.4401C36.5387 26.9951 34.9795 29.4376 32.6166 30.3536ZM76.1453 22.6886C76.1131 22.7689 76.0971 22.8654 76.0649 22.9457C76.0328 23.0261 76.0167 23.1225 75.9846 23.2028C75.213 25.6132 74.2646 28.0557 72.609 29.6305C71.8857 30.3214 71.0819 30.691 70.5033 30.5946C69.9728 30.5143 69.3942 29.984 69.0727 29.293C68.6548 28.3771 68.6065 27.188 68.6065 26.272C68.6065 24.4883 68.8316 22.9618 69.2495 21.612C69.6353 20.4229 70.1657 19.4426 70.8408 18.7356C71.532 17.9964 72.4161 17.5143 73.268 17.4179C73.3645 17.4019 73.477 17.4019 73.5734 17.4019C74.2807 17.4019 74.9719 17.675 75.3737 18.141C75.872 18.7035 76.0488 19.5873 76.0971 20.2461C76.1935 21.0495 76.1935 21.8851 76.1453 22.6886Z" fill="white"/>
<path d="M62.5309 10.2192C62.772 10.3156 63.0131 10.3638 63.2542 10.3638C64.0258 10.3638 64.733 9.91389 65.0384 9.15864C65.3117 8.46767 65.167 7.71242 64.717 7.18214C64.5884 6.49117 64.074 5.89661 63.3346 5.70378C62.3058 5.41454 61.2449 6.02517 60.9556 7.03752C60.6502 8.17843 61.0842 9.64072 62.5309 10.2192Z" fill="white"/>
<path d="M62.5309 10.2192C62.772 10.3156 63.0131 10.3638 63.2542 10.3638C64.0258 10.3638 64.733 9.91389 65.0384 9.15864C65.3117 8.46767 65.167 7.71242 64.717 7.18214C64.5884 6.49117 64.074 5.89661 63.3346 5.70378C62.3058 5.41454 61.2449 6.02517 60.9556 7.03752C60.6502 8.17843 61.0842 9.64072 62.5309 10.2192Z" fill="white"/>
<path d="M122.487 10.2192C122.728 10.3156 122.969 10.3638 123.21 10.3638C123.982 10.3638 124.689 9.91389 124.994 9.15864C125.268 8.46767 125.123 7.71242 124.673 7.18214C124.544 6.49117 124.03 5.89661 123.291 5.70378C122.262 5.41454 121.201 6.02517 120.912 7.03752C120.606 8.17843 121.04 9.64072 122.487 10.2192Z" fill="white"/>
<path d="M122.487 10.2192C122.728 10.3156 122.969 10.3638 123.21 10.3638C123.982 10.3638 124.689 9.91389 124.994 9.15864C125.268 8.46767 125.123 7.71242 124.673 7.18214C124.544 6.49117 124.03 5.89661 123.291 5.70378C122.262 5.41454 121.201 6.02517 120.912 7.03752C120.606 8.17843 121.04 9.64072 122.487 10.2192Z" fill="#E9168C"/>
<path d="M25.3345 10.6047C26.8937 9.36734 27.617 7.16587 27.1026 5.1251C26.4918 2.68259 24.4986 0.914988 21.6374 0.256154C18.2619 -0.515163 14.6131 0.497191 12.7645 2.7308C10.4499 5.52682 10.4338 9.5441 12.7485 14.3648C13.2628 15.4415 13.8254 16.486 14.3719 17.4983C15.5775 19.7319 16.7188 21.837 17.2814 24.1831C18.1494 27.7986 17.7957 31.3017 16.2687 34.3066C15.1917 36.4117 13.6165 37.9543 11.8322 38.6453C10.0159 39.3523 8.0066 39.288 6.44741 38.4685C5.56333 38.0025 4.42207 37.0705 4.00415 35.2708C3.57015 33.3585 4.29348 31.0124 5.91697 29.1484C6.62423 28.345 6.52778 27.1237 5.72408 26.4327C4.92037 25.7257 3.69874 25.8221 3.00755 26.6256C0.532138 29.4377 -0.496605 32.9889 0.22673 36.1385C0.805398 38.6613 2.36459 40.7021 4.63104 41.8912C6.02948 42.6304 7.6369 43 9.27645 43C10.6106 43 11.9608 42.759 13.2307 42.2447C15.899 41.2003 18.1976 38.9988 19.6925 36.0581C21.6214 32.2819 22.0875 27.7504 21.0266 23.2832C20.3515 20.439 19.0334 18.0125 17.7636 15.6664C17.2492 14.7023 16.7027 13.706 16.2365 12.7097C15.3203 10.7814 14.0344 7.24622 15.7382 5.18937C16.6545 4.09667 18.8727 3.58246 20.7855 4.01633C21.6053 4.20916 23.0359 4.7073 23.3735 6.0571C23.5181 6.61952 23.3252 7.27836 22.9555 7.5676C22.1197 8.22643 21.9911 9.44769 22.6501 10.2833C23.2931 11.1349 24.4986 11.2796 25.3345 10.6047Z" fill="white"/>
<path d="M25.3345 10.6047C26.8937 9.36734 27.617 7.16587 27.1026 5.1251C26.4918 2.68259 24.4986 0.914988 21.6374 0.256154C18.2619 -0.515163 14.6131 0.497191 12.7645 2.7308C10.4499 5.52682 10.4338 9.5441 12.7485 14.3648C13.2628 15.4415 13.8254 16.486 14.3719 17.4983C15.5775 19.7319 16.7188 21.837 17.2814 24.1831C18.1494 27.7986 17.7957 31.3017 16.2687 34.3066C15.1917 36.4117 13.6165 37.9543 11.8322 38.6453C10.0159 39.3523 8.0066 39.288 6.44741 38.4685C5.56333 38.0025 4.42207 37.0705 4.00415 35.2708C3.57015 33.3585 4.29348 31.0124 5.91697 29.1484C6.62423 28.345 6.52778 27.1237 5.72408 26.4327C4.92037 25.7257 3.69874 25.8221 3.00755 26.6256C0.532138 29.4377 -0.496605 32.9889 0.22673 36.1385C0.805398 38.6613 2.36459 40.7021 4.63104 41.8912C6.02948 42.6304 7.6369 43 9.27645 43C10.6106 43 11.9608 42.759 13.2307 42.2447C15.899 41.2003 18.1976 38.9988 19.6925 36.0581C21.6214 32.2819 22.0875 27.7504 21.0266 23.2832C20.3515 20.439 19.0334 18.0125 17.7636 15.6664C17.2492 14.7023 16.7027 13.706 16.2365 12.7097C15.3203 10.7814 14.0344 7.24622 15.7382 5.18937C16.6545 4.09667 18.8727 3.58246 20.7855 4.01633C21.6053 4.20916 23.0359 4.7073 23.3735 6.0571C23.5181 6.61952 23.3252 7.27836 22.9555 7.5676C22.1197 8.22643 21.9911 9.44769 22.6501 10.2833C23.2931 11.1349 24.4986 11.2796 25.3345 10.6047Z" fill="white"/>
</svg>
