<svg width="22" height="18" viewBox="0 0 22 18" fill="none" xmlns="http://www.w3.org/2000/svg">
<path d="M21.9581 2.14366C21.1346 2.50804 20.2625 2.74869 19.3696 2.85789C20.3109 2.2892 21.0155 1.39644 21.3531 0.344929C20.4628 0.864686 19.4938 1.23386 18.4848 1.43773C17.8063 0.707898 16.9074 0.2239 15.9277 0.0608269C14.9481 -0.102246 13.9423 0.064723 13.0665 0.535829C12.1907 1.00694 11.4938 1.75584 11.084 2.66635C10.6742 3.57686 10.5743 4.59807 10.7999 5.57155C7.051 5.39507 3.72763 3.58181 1.50494 0.842537C1.10033 1.53523 0.888714 2.32493 0.892375 3.12849C0.891824 3.8755 1.07452 4.61109 1.42425 5.26993C1.77398 5.92878 2.27991 6.49049 2.89712 6.90519C2.18187 6.88343 1.48219 6.68955 0.856625 6.33976V6.39444C0.856407 7.44296 1.21633 8.45931 1.8754 9.27123C2.53447 10.0832 3.45214 10.6407 4.47288 10.8494C4.08622 10.9534 3.68784 11.0066 3.28763 11.0079C2.99819 11.0079 2.72181 10.9795 2.44613 10.9283C2.73661 11.8306 3.29932 12.6192 4.05591 13.1845C4.81251 13.7498 5.72535 14.0635 6.66738 14.0821C5.07128 15.3404 3.10185 16.023 1.07456 16.0206C0.715485 16.0221 0.356648 16.0017 0 15.9597C2.06806 17.2937 4.47313 18.0018 6.92931 18C15.2254 18 19.7588 11.0826 19.7588 5.09193C19.7588 4.90092 19.7587 4.70644 19.7443 4.51128C20.6311 3.87148 21.3954 3.07517 22 2.16096L21.9581 2.14366Z" fill="white"/>
</svg>
